<svg width="500" height="500" viewBox="0 0 500 500" fill="none" xmlns="http://www.w3.org/2000/svg">
<rect width="500" height="500" fill="#59B100"/>
<path d="M189.89 110.373C187.202 92.4578 191.607 73.5798 203.372 58.4498L209.943 50L216.429 55.0743C230.685 66.2262 239.757 82.2795 241.976 100.277C243.691 114.199 241.128 127.988 234.74 140.142C253.17 151.397 265.81 163.189 278.109 177.44C280.738 158.969 290.864 141.719 307.187 130.666L316.043 124.671L320.645 131.509C330.761 146.538 334.435 164.62 330.992 182.421C328.159 197.068 320.779 210.075 309.909 219.879C318.485 236.516 325.358 256.007 329.955 276.586C332.691 273.066 335.772 269.795 339.186 266.846C351.446 256.26 367.118 250.429 383.315 250.429H394V258.68C394 292.689 368.934 320.93 336.362 325.813V364.95C337.28 364.061 338.215 363.188 339.186 362.35C351.446 351.764 367.118 345.933 383.316 345.933L393.999 345.934V354.184C393.999 388.193 368.934 416.434 336.361 421.318V450H312.86V421.318C280.287 416.434 255.222 388.193 255.222 354.183V345.933H265.907C282.104 345.933 297.776 351.763 310.036 362.35C311.007 363.188 311.942 364.061 312.86 364.95V325.814C280.287 320.93 255.222 292.689 255.222 258.68V250.43H265.907C278.432 250.43 290.636 253.931 301.198 260.407C297.906 250.21 294.01 240.592 289.667 231.962C282.382 234.52 274.881 235.75 267.459 235.75C242.443 235.75 218.348 221.793 206.597 197.792L202.971 190.388L212.561 185.663C223.581 180.234 235.486 178.103 247.078 178.931C239.302 171.612 230.7 165.063 219.863 158.688C207.776 168.658 192.787 174.077 176.992 174.077C176.661 174.077 176.329 174.075 175.997 174.07C157.92 173.81 141.025 166.506 128.425 153.501L122.693 147.584L130.355 140.116C137.527 133.126 145.933 128.035 154.899 124.866C142.241 122.635 126.482 121.421 107.021 122.269L106 98.7186C139.643 97.2508 167.803 101.172 189.89 110.373Z" fill="white"/>
</svg>
